PathFileType	4	(X/Y/Z)	C:\Users\Basilio\Documents\Thesis Gigler\squatting_fais\c3dfiles\038\SLS_front_pre5\markers_experimental.trc
DataRate	CameraRate	NumFrames	NumMarkers	Units	OrigDataRate	OrigDataStartFrame	OrigNumFrames
200.000000	200.000000	4	61	mm	200.000000	191	1532
Frame#	Time	FHD			LBHD			RBHD			C7			T10			CLAV			LSHO			LUUPA			LMUPA			LDUPA			LLEP			LMEP			LRAD			LUL			LRFIN			RSHO			RUPA1			RMUPA			RDUPA			RLEP			RMEP			RRAD			RUL			RUFIN			LASI			RASI			USACR			LSACR			RSACR			LTHI1			LTHI2			LTHI3			LTHI4			LLFC			LMFC			LTIB1			LTIB2			LTIB3			LTIB4			LLMAL			LMMAL			LHEE			LMT1			LMT2			LMT5			RTHI			RTHI2			RTHI3			RTHI4			RLFC			RMFC			RTIB1			RTIB2			RTIB3			RTIB4			RLMAL			RMMAL			RHEE			RMT1			RMT2			RMT5			
		X1	Y1	Z1	X2	Y2	Z2	X3	Y3	Z3	X4	Y4	Z4	X5	Y5	Z5	X6	Y6	Z6	X7	Y7	Z7	X8	Y8	Z8	X9	Y9	Z9	X10	Y10	Z10	X11	Y11	Z11	X12	Y12	Z12	X13	Y13	Z13	X14	Y14	Z14	X15	Y15	Z15	X16	Y16	Z16	X17	Y17	Z17	X18	Y18	Z18	X19	Y19	Z19	X20	Y20	Z20	X21	Y21	Z21	X22	Y22	Z22	X23	Y23	Z23	X24	Y24	Z24	X25	Y25	Z25	X26	Y26	Z26	X27	Y27	Z27	X28	Y28	Z28	X29	Y29	Z29	X30	Y30	Z30	X31	Y31	Z31	X32	Y32	Z32	X33	Y33	Z33	X34	Y34	Z34	X35	Y35	Z35	X36	Y36	Z36	X37	Y37	Z37	X38	Y38	Z38	X39	Y39	Z39	X40	Y40	Z40	X41	Y41	Z41	X42	Y42	Z42	X43	Y43	Z43	X44	Y44	Z44	X45	Y45	Z45	X46	Y46	Z46	X47	Y47	Z47	X48	Y48	Z48	X49	Y49	Z49	X50	Y50	Z50	X51	Y51	Z51	X52	Y52	Z52	X53	Y53	Z53	X54	Y54	Z54	X55	Y55	Z55	X56	Y56	Z56	X57	Y57	Z57	X58	Y58	Z58	X59	Y59	Z59	X60	Y60	Z60	X61	Y61	Z61	

192	0.9550000000000001	-247.1114349365235	1779.274047851563	-997.7969970703127	-397.6714172363282	1716.90576171875	-1060.758544921875	-389.9736328125001	1702.294799804688	-915.5162353515627	-428.2244262695314	1527.591186523438	-988.0462036132815	-378.6024169921876	1250.464477539063	-975.8821411132815	-283.7291259765626	1527.151489257813	-997.3455810546877	-346.5443115234376	1552.959838867188	-1141.783935546875	-175.840072631836	1501.114379882813	-1269.232299804688	-150.0931091308594	1536.049560546875	-1241.700805664063	-107.3038711547852	1512.341674804688	-1276.0654296875	-45.65441513061524	1517.731323242188	-1275.747802734375	-32.65020751953126	1443.114990234375	-1255.176513671875	236.2066802978516	1516.992919921875	-1162.051025390625	247.5637359619141	1540.914428710938	-1229.477783203125	306.6141052246094	1549.32568359375	-1135.286865234375	-334.7319335937501	1550.5849609375	-851.792419433594	-177.5278625488282	1528.270263671875	-727.3771362304689	-140.9836883544922	1541.103759765625	-757.7941284179689	-109.9839859008789	1528.169311523438	-707.1834716796876	-36.90318679809571	1530.417846679688	-694.5728759765626	-26.26838111877442	1451.223999023438	-708.9127197265626	235.9115600585938	1537.898681640625	-790.121276855469	248.5752410888672	1557.409790039063	-723.2453002929689	314.6950073242188	1575.456420898438	-800.9061279296877	-195.790267944336	1074.883056640625	-1092.925415039063	-199.4751892089844	1089.95361328125	-838.0225219726565	-367.6853332519532	1123.763305664063	-970.2053833007815	-380.1853027343751	1094.329956054688	-996.3350830078127	-378.5355834960938	1096.097290039063	-940.5056762695315	-259.1191101074219	752.1565551757814	-1140.2470703125	-235.1490478515626	670.4928588867189	-1134.780883789063	-187.2237701416016	671.8706665039064	-1116.92529296875	-266.1504516601563	623.7647094726564	-1114.033935546875	-266.7541503906251	560.8549194335939	-1107.4912109375	-246.9598999023438	549.2365722656251	-988.711364746094	-244.8059997558594	368.6315307617188	-1044.25732421875	-295.0758972167969	331.7522888183594	-1109.315185546875	-259.6399841308594	323.4573364257813	-1081.944091796875	-276.0912475585938	244.8118133544922	-1055.748901367188	-368.5527038574219	115.3664627075196	-1074.306030273438	-327.3313598632813	129.1065368652344	-1005.970031738281	-416.8104248046876	95.01208496093751	-1017.655822753906	-216.626937866211	49.01268768310548	-1019.323852539063	-210.6896514892579	45.31572341918946	-1070.311645507813	-257.3816223144532	31.33959770202637	-1114.594604492188	-268.1564636230469	816.1857910156252	-785.414978027344	-238.9343261718751	755.4786987304689	-780.8159790039065	-206.0097808837891	753.5396118164064	-784.7498779296877	-276.9681701660157	680.4046020507814	-797.275573730469	-278.7033386230469	542.4188232421876	-803.665710449219	-282.5007019042969	540.6741333007814	-925.2148437500002	-246.1856536865235	364.8020935058594	-829.3796386718752	-323.1817932128907	288.9155578613282	-786.963073730469	-277.8890075683594	289.4296875000001	-799.9395751953127	-272.5675659179688	237.7037963867188	-829.492370605469	-339.9767761230469	119.7634735107422	-795.9326782226565	-316.0194091796876	126.0236587524414	-876.2003173828127	-404.642547607422	85.84693145751955	-852.8801879882815	-190.8041229248047	49.83992385864259	-860.5325927734377	-190.3067474365235	48.3687210083008	-813.4087524414065	-231.9602966308594	34.16215515136719	-766.7379760742189	
193	0.96	-247.0588836669922	1779.365356445313	-997.9455566406252	-397.7029724121095	1716.94580078125	-1060.775146484375	-389.9715881347657	1702.292846679688	-915.5943603515627	-428.2043457031251	1527.568359375	-988.0728759765627	-378.6374206542969	1250.436767578125	-975.9309082031252	-283.8062133789063	1527.170776367188	-997.3652343750002	-346.6363220214844	1552.965209960938	-1141.830688476563	-175.831039428711	1501.119506835938	-1269.228393554688	-150.1263885498047	1535.981323242188	-1241.727661132813	-107.3638000488282	1512.396362304688	-1276.095581054688	-45.69340896606446	1517.701904296875	-1275.763305664063	-32.66825103759766	1443.065185546875	-1255.254760742188	236.2053375244141	1516.991821289063	-1162.053344726563	247.5203552246094	1540.946411132813	-1229.527221679688	306.6179199218751	1549.362670898438	-1135.285278320313	-334.8844299316407	1550.603515625	-851.7968750000002	-177.5464477539063	1528.280639648438	-727.4315185546876	-141.0714416503907	1541.080200195313	-757.8128662109376	-110.0588607788086	1528.123291015625	-707.2103881835939	-36.98526000976563	1530.400512695313	-694.6041259765626	-26.12703132629395	1451.418090820313	-708.7929687500001	235.9204406738282	1537.882568359375	-790.2012329101565	248.6654968261719	1557.513549804688	-723.1623535156251	314.6584472656251	1575.403442382813	-800.9236450195315	-195.8215942382813	1074.914916992188	-1092.95263671875	-199.4718170166016	1089.9111328125	-838.1093750000002	-367.7644348144532	1123.77978515625	-970.2559814453127	-380.2945861816407	1094.36376953125	-996.3424072265627	-378.5587463378907	1096.080688476563	-940.5264892578127	-259.1353759765626	751.8195800781251	-1140.323486328125	-235.1605834960938	670.4970703125001	-1134.80126953125	-187.283447265625	671.8787231445314	-1116.90478515625	-266.1883850097657	623.7786254882814	-1114.063110351563	-266.7567443847657	560.8310546875001	-1107.492797851563	-246.9112396240235	549.2179565429689	-988.7378540039065	-244.8091735839844	368.6361083984376	-1044.26123046875	-295.0643920898438	331.7682800292969	-1109.263305664063	-259.6571044921876	323.5699768066407	-1081.935302734375	-276.3634338378907	244.3029785156251	-1055.96630859375	-368.5128173828126	115.3270416259766	-1074.294921875	-327.3829650878907	129.1426086425782	-1005.984924316406	-416.8103942871095	95.01980590820314	-1017.666320800781	-216.6291046142579	49.0045623779297	-1019.331726074219	-210.6878814697266	45.31423950195313	-1070.319213867188	-257.3597717285157	31.3108253479004	-1114.568969726563	-268.1755676269532	816.1650390625002	-785.4373168945315	-238.8972320556641	755.4523315429689	-780.8577270507815	-206.0006561279297	753.5445556640626	-784.7443847656252	-276.9260253906251	680.3901977539064	-797.272399902344	-278.6778259277344	542.4183959960939	-803.703063964844	-282.4758300781251	540.6679077148439	-925.2841796875002	-246.1392059326172	364.7965698242188	-829.367614746094	-323.1328430175782	288.9440002441407	-786.9832153320315	-277.8916931152344	289.4282226562501	-799.9124145507815	-272.5279541015626	237.7192535400391	-829.467956542969	-339.9617004394532	119.7564544677735	-795.9121093750002	-315.6239013671876	125.7205352783203	-876.096130371094	-404.5859680175782	85.7927703857422	-852.9075927734377	-190.8091735839844	49.8751564025879	-860.4886474609377	-190.3045959472657	48.36440277099611	-813.4110107421877	-231.9782257080079	34.18091583251954	-766.7105102539064	
194	0.965	-247.1231842041016	1779.274536132813	-997.951354980469	-397.639373779297	1716.97021484375	-1060.836669921875	-389.9624328613282	1702.584350585938	-915.9362792968752	-428.2676086425782	1527.586059570313	-988.1245117187502	-378.7309875488282	1250.444091796875	-975.9609985351565	-283.8325195312501	1527.166748046875	-997.4224243164065	-346.6470642089844	1552.9521484375	-1141.856079101563	-175.8911285400391	1501.167724609375	-1269.30322265625	-150.1023254394532	1536.0185546875	-1241.75927734375	-107.4109878540039	1512.401000976563	-1276.165161132813	-45.70256423950196	1517.711791992188	-1275.837036132813	-32.69905471801759	1442.97900390625	-1255.406982421875	236.0928649902344	1516.953125	-1162.15625	247.5382232666016	1540.8642578125	-1229.548461914063	306.6014709472657	1549.295043945313	-1135.303100585938	-334.9382019042969	1550.56591796875	-851.8443603515627	-177.5970611572266	1528.276123046875	-727.4682617187501	-141.0503540039063	1541.056274414063	-757.8649902343751	-110.0899887084961	1528.0771484375	-707.2832641601564	-37.02321243286134	1530.373901367188	-694.6835327148439	-26.35213470458985	1451.14892578125	-708.9926147460939	235.8302154541016	1537.798583984375	-790.2573852539065	248.6766967773438	1557.453979492188	-723.1973266601564	314.6162109375001	1575.266235351563	-800.989685058594	-195.8923797607422	1074.893188476563	-1092.983032226563	-199.5186309814454	1089.940551757813	-838.100280761719	-367.7225036621094	1123.720336914063	-970.2966918945315	-380.3150024414063	1094.254760742188	-996.450378417969	-378.6320190429688	1096.072509765625	-940.5875244140627	-259.1628417968751	751.8091430664064	-1140.397338867188	-235.1972351074219	670.4869995117189	-1134.799072265625	-187.2793731689453	671.8681640625001	-1116.925170898438	-266.1860351562501	623.8142089843751	-1114.0517578125	-266.7931213378907	560.8667602539064	-1107.504028320313	-246.9934082031251	549.2271118164064	-988.7290039062502	-245.1361083984376	368.1830139160157	-1044.4931640625	-295.0768737792969	331.7802429199219	-1109.300659179688	-259.6551513671876	323.5437622070313	-1081.996704101563	-276.1178588867188	244.8160095214844	-1055.731323242188	-368.5289916992188	115.3616790771485	-1074.319702148438	-327.3861999511719	129.1326904296875	-1005.988647460938	-416.7208862304689	94.94138336181642	-1017.593811035156	-216.602767944336	48.99058151245119	-1019.303466796875	-210.7021636962891	45.32736206054688	-1070.323974609375	-257.3414611816407	31.31764221191407	-1114.542114257813	-268.1907043457032	816.1497192382815	-785.4713134765627	-238.9034576416016	755.4526367187501	-780.870788574219	-205.9671173095704	753.5651855468751	-784.7657470703127	-276.9357604980469	680.4010009765626	-797.283874511719	-278.6828002929688	542.4332885742189	-803.705505371094	-282.4238281250001	540.6318359375001	-925.2803344726565	-246.1222839355469	364.7671508789063	-829.375427246094	-323.1728515625001	288.9717712402344	-787.0058593750002	-277.8802795410157	289.4397888183594	-799.9564208984377	-272.5503845214844	237.6765594482422	-829.4778442382815	-339.9313354492188	119.8007278442383	-795.924011230469	-315.6610717773438	125.7442398071289	-876.1190185546877	-404.5874633789064	85.8336639404297	-852.873962402344	-190.8189392089844	49.87833404541017	-860.482116699219	-190.3085479736328	48.36423110961915	-813.4121704101565	-231.9581756591797	34.22968673706055	-766.7417602539064	
195	0.97	-247.1795501708985	1779.284423828125	-997.955505371094	-397.7644958496095	1716.919067382813	-1060.8662109375	-389.9370727539064	1702.587646484375	-915.9813232421877	-428.3433532714845	1527.578002929688	-988.156188964844	-378.7198791503907	1250.455932617188	-976.0164184570315	-283.8157958984376	1527.171020507813	-997.4774169921877	-346.6693115234376	1552.961669921875	-1141.913818359375	-175.9428863525391	1501.189819335938	-1269.309448242188	-150.2116394042969	1535.953979492188	-1241.801147460938	-107.4102554321289	1512.402709960938	-1276.199462890625	-45.78803253173829	1517.69775390625	-1275.886962890625	-32.81996154785157	1442.978393554688	-1255.432250976563	236.0863189697266	1516.93359375	-1162.156127929688	247.5055389404297	1540.864135742188	-1229.627685546875	306.5247802734376	1549.169677734375	-1135.373413085938	-334.9975891113282	1550.558959960938	-851.8442993164065	-177.630126953125	1528.2490234375	-727.4838867187501	-141.0695495605469	1541.057250976563	-757.9757080078126	-110.1178054809571	1528.056518554688	-707.3457031250001	-37.04844284057618	1530.323974609375	-694.7103271484376	-26.38511848449708	1451.12158203125	-709.0125122070314	235.8126373291016	1537.727172851563	-790.2978515625002	248.6248016357422	1557.304321289063	-723.2208862304689	314.6338806152344	1575.289672851563	-801.0491333007815	-195.909408569336	1074.8994140625	-1092.984252929688	-199.5259246826172	1089.960571289063	-838.1160278320315	-367.8436584472657	1123.10498046875	-970.2156372070315	-380.3798217773438	1094.226684570313	-996.491149902344	-378.6926269531251	1096.041748046875	-940.6224365234377	-259.0836486816407	752.2013549804689	-1140.73388671875	-235.2158813476563	670.4801025390626	-1134.81201171875	-187.2561187744141	671.8580932617189	-1116.940795898438	-266.2065429687501	623.7742919921876	-1114.078491210938	-266.7776489257813	560.8352661132814	-1107.520263671875	-246.9863433837891	549.2562255859376	-988.777770996094	-245.1464996337891	368.1797485351563	-1044.442626953125	-295.0708923339844	331.8300781250001	-1109.333129882813	-259.6408691406251	323.4467468261719	-1081.949584960938	-276.3354797363282	244.2846069335938	-1055.9453125	-368.4421386718751	115.3317947387696	-1074.286499023438	-327.3847656250001	129.1459655761719	-1005.969970703125	-416.7152404785157	94.94748687744142	-1017.680358886719	-216.6259155273438	48.9689064025879	-1019.289611816406	-210.7113037109376	45.32321929931641	-1070.311401367188	-257.3359375000001	31.29643630981446	-1114.557983398438	-268.1695251464844	816.1475219726565	-785.4937133789065	-238.8891296386719	755.4718017578126	-780.8858032226565	-205.9561614990235	753.5787963867189	-784.8391723632815	-276.8868408203126	680.4007568359376	-797.3209228515627	-278.6269226074219	542.4264526367189	-803.7453613281252	-281.3972473144532	540.3502197265626	-925.022888183594	-246.1270751953126	364.7710876464844	-829.3669433593752	-323.1826782226563	288.9692077636719	-787.0084228515627	-277.8633117675782	289.4134521484376	-799.950622558594	-272.5288085937501	237.7014923095704	-829.4993286132815	-339.9869079589844	119.7631378173828	-795.8994140625002	-315.9573364257813	125.9803085327149	-876.156433105469	-404.6127319335939	85.80833435058595	-852.9138183593752	-190.8102416992188	49.86492156982423	-860.4981079101565	-190.3448791503907	48.30263137817384	-813.385681152344	-231.9702606201172	34.19956207275391	-766.7405395507814	
